HIERARCHY
ROOT Hips
{
	OFFSET 0.000000 89.005402 0.000000
	CHANNELS 6 Xposition Yposition Zposition Xrotation Yrotation Zrotation
	JOINT Spine
	{
		OFFSET 0.116900 10.681000 0.373400
		CHANNELS 3 Xrotation Yrotation Zrotation
		JOINT Spine1
		{
			OFFSET 0.000000 13.840401 0.053500
			CHANNELS 3 Xrotation Yrotation Zrotation
			JOINT Spine2
			{
				OFFSET 0.000000 14.712700 -0.366200
				CHANNELS 3 Xrotation Yrotation Zrotation
				JOINT Neck
				{
					OFFSET 0.000000 35.415497 -3.314200
					CHANNELS 3 Xrotation Yrotation Zrotation
					JOINT Head
					{
						OFFSET 0.000000 16.899200 1.218300
						CHANNELS 3 Xrotation Yrotation Zrotation
						JOINT HeadTop_End
						{
							OFFSET 0.000000 22.206207 2.192500
							CHANNELS 3 Xrotation Yrotation Zrotation
							End Site
							{
								OFFSET 0.000000 22.314178 0.000000
							}
						}
					}
				}
				JOINT LeftShoulder
				{
					OFFSET 12.896400 26.716293 -4.548400
					CHANNELS 3 Xrotation Yrotation Zrotation
					JOINT LeftArm
					{
						OFFSET 19.027000 -4.857010 -1.718400
						CHANNELS 3 Xrotation Yrotation Zrotation
						JOINT LeftForeArm
						{
							OFFSET 24.179897 0.000000 0.000000
							CHANNELS 3 Xrotation Yrotation Zrotation
							JOINT LeftHand
							{
								OFFSET 27.156403 0.000000 0.000000
								CHANNELS 3 Xrotation Yrotation Zrotation
								JOINT LeftHandIndex1
								{
									OFFSET 16.441200 0.000000 0.000000
									CHANNELS 3 Xrotation Yrotation Zrotation
									JOINT LeftHandIndex2
									{
										OFFSET 4.821899 0.000000 0.000000
										CHANNELS 3 Xrotation Yrotation Zrotation
										JOINT LeftHandIndex3
										{
											OFFSET 6.386497 0.000000 0.000000
											CHANNELS 3 Xrotation Yrotation Zrotation
											JOINT LeftHandIndex4
											{
												OFFSET 5.188988 0.000000 0.000000
												CHANNELS 3 Xrotation Yrotation Zrotation
												End Site
												{
													OFFSET -0.178703 5.185913 0.000177
												}
											}
										}
									}
								}
								JOINT LeftHandThumb1
								{
									OFFSET 6.534897 -5.032593 5.900300
									CHANNELS 3 Xrotation Yrotation Zrotation
									JOINT LeftHandThumb2
									{
										OFFSET 3.818176 -2.204422 2.204423
										CHANNELS 3 Xrotation Yrotation Zrotation
										JOINT LeftHandThumb3
										{
											OFFSET 3.252098 -1.877594 1.877601
											CHANNELS 3 Xrotation Yrotation Zrotation
											JOINT LeftHandThumb4
											{
												OFFSET 5.251778 -3.032120 3.032117
												CHANNELS 3 Xrotation Yrotation Zrotation
												End Site
												{
													OFFSET 0.000023 6.780014 0.000000
												}
											}
										}
									}
								}
							}
						}
					}
				}
				JOINT RightShoulder
				{
					OFFSET -12.896300 26.716293 -4.548400
					CHANNELS 3 Xrotation Yrotation Zrotation
					JOINT RightArm
					{
						OFFSET -19.027000 -4.857010 -1.718400
						CHANNELS 3 Xrotation Yrotation Zrotation
						JOINT RightForeArm
						{
							OFFSET -24.179897 0.000000 0.000000
							CHANNELS 3 Xrotation Yrotation Zrotation
							JOINT RightHand
							{
								OFFSET -27.156403 0.000000 0.000000
								CHANNELS 3 Xrotation Yrotation Zrotation
								JOINT RightHandThumb1
								{
									OFFSET -6.591202 -4.852203 5.988100
									CHANNELS 3 Xrotation Yrotation Zrotation
									JOINT RightHandThumb2
									{
										OFFSET -3.818176 -2.204422 2.204423
										CHANNELS 3 Xrotation Yrotation Zrotation
										JOINT RightHandThumb3
										{
											OFFSET -3.252098 -1.877594 1.877601
											CHANNELS 3 Xrotation Yrotation Zrotation
											JOINT RightHandThumb4
											{
												OFFSET -5.251778 -3.032120 3.032117
												CHANNELS 3 Xrotation Yrotation Zrotation
												End Site
												{
													OFFSET -0.000023 6.780014 0.000000
												}
											}
										}
									}
								}
								JOINT RightHandIndex1
								{
									OFFSET -16.029404 0.000000 0.000000
									CHANNELS 3 Xrotation Yrotation Zrotation
									JOINT RightHandIndex2
									{
										OFFSET -5.213303 0.000000 0.000000
										CHANNELS 3 Xrotation Yrotation Zrotation
										JOINT RightHandIndex3
										{
											OFFSET -6.386528 0.000000 0.000000
											CHANNELS 3 Xrotation Yrotation Zrotation
											JOINT RightHandIndex4
											{
												OFFSET -5.189026 0.000000 0.000000
												CHANNELS 3 Xrotation Yrotation Zrotation
												End Site
												{
													OFFSET 0.236702 5.183624 0.001972
												}
											}
										}
									}
								}
							}
						}
					}
				}
			}
		}
	}
	JOINT LeftUpLeg
	{
		OFFSET 14.073000 -7.904099 -1.463000
		CHANNELS 3 Xrotation Yrotation Zrotation
		JOINT LeftLeg
		{
			OFFSET -0.109806 -34.073280 4.093200
			CHANNELS 3 Xrotation Yrotation Zrotation
			JOINT LeftFoot
			{
				OFFSET 0.109806 -29.899420 -6.319000
				CHANNELS 3 Xrotation Yrotation Zrotation
				JOINT LeftToeBase
				{
					OFFSET 1.551100 -14.988700 20.535801
					CHANNELS 3 Xrotation Yrotation Zrotation
					JOINT LeftToe_End
					{
						OFFSET 0.221200 0.570800 13.248301
						CHANNELS 3 Xrotation Yrotation Zrotation
						End Site
						{
							OFFSET 0.000000 13.262435 0.000000
						}
					}
				}
			}
		}
	}
	JOINT RightUpLeg
	{
		OFFSET -13.839300 -7.904099 -1.463000
		CHANNELS 3 Xrotation Yrotation Zrotation
		JOINT RightLeg
		{
			OFFSET 0.109694 -34.073219 4.093300
			CHANNELS 3 Xrotation Yrotation Zrotation
			JOINT RightFoot
			{
				OFFSET -0.109694 -29.899384 -6.319200
				CHANNELS 3 Xrotation Yrotation Zrotation
				JOINT RightToeBase
				{
					OFFSET -1.551100 -14.988700 20.535801
					CHANNELS 3 Xrotation Yrotation Zrotation
					JOINT RightToe_End
					{
						OFFSET -0.221200 0.570900 13.248299
						CHANNELS 3 Xrotation Yrotation Zrotation
						End Site
						{
							OFFSET 0.000000 13.262440 0.000000
						}
					}
				}
			}
		}
	}
}
MOTION
Frames: 8
Frame Time: 0.033333
10.812193 84.494972 15.941942 -13.385054 24.691305 5.121198 16.155117 -7.540691 0.954790 3.542803 -3.386714 0.134559 3.524490 -3.266245 0.998328 13.337464 1.689919 -1.896124 -14.158346 -11.018900 -0.289334 -0.000000 -0.000000 -0.000000 1.595959 -14.113647 -8.235414 10.896638 18.877109 -52.159385 -0.000005 -46.779266 -0.000015 7.111663 -11.441807 1.793839 -1.412272 -2.982902 -14.064561 0.354942 2.009985 -20.027317 0.333865 1.951220 -19.417483 0.000003 -0.000000 -0.000000 -6.914271 -0.636274 5.142954 6.577451 20.803440 -7.132320 -9.681256 -1.472681 9.839229 0.000000 -0.000001 0.000005 0.972608 3.166664 -1.078445 -10.730893 -8.997958 60.912003 0.000000 29.535681 -0.000019 19.871344 9.497046 5.733783 -8.247549 -19.059281 -19.001182 7.531801 -15.098046 0.714133 -4.093423 -11.426218 -18.024237 -0.000001 0.000000 0.000000 -2.277590 2.330177 23.015381 0.566288 -2.227661 28.522945 0.536268 -2.171537 27.741011 0.000000 -0.000003 -0.000000 -3.896730 13.502411 0.047684 50.144800 10.573508 -4.369623 -12.000021 10.691012 -2.550384 -23.403385 0.011563 -0.068470 -0.000000 0.000003 0.000000 -21.066149 -3.965323 7.599111 14.663453 -4.726683 -0.266100 20.931304 3.826182 21.120473 -0.925358 0.107157 -2.514368 -0.000001 0.000000 -0.000000 
11.382429 82.632690 17.484449 -15.336917 26.101228 6.616924 16.871602 -8.008375 1.074927 3.702935 -3.619657 -0.162049 3.677539 -3.520753 0.644930 13.634707 0.995875 -2.240321 -14.150507 -14.171035 -0.092828 -0.000000 -0.000000 0.000000 1.725056 -15.717119 -6.250076 10.651209 24.485904 -50.509529 0.000006 -43.944273 0.000005 4.100722 -12.084818 1.734080 -0.599372 -3.186036 -6.742577 0.253967 1.707837 -16.915141 0.241868 1.667538 -16.504274 -0.000000 0.000001 -0.000000 -6.807598 -0.461439 4.850877 6.955565 21.933506 -7.532243 -9.291539 -0.718208 10.050116 -0.000001 -0.000001 0.000002 0.935517 2.780934 -2.722265 -10.034517 -14.246674 58.395734 0.000006 29.460962 -0.000008 17.244616 8.497759 3.317692 -8.137067 -19.543135 -19.269439 7.380837 -15.123574 0.479802 -3.780957 -12.029136 -17.904631 0.000000 -0.000000 -0.000002 -1.821313 2.430986 19.071707 0.488467 -2.078164 26.451625 0.467217 -2.034920 25.859383 -0.000003 -0.000002 -0.000002 -4.933082 15.399937 -0.035568 57.870806 10.533915 -6.193011 -12.273409 10.859101 -2.061129 -28.917751 0.048675 -0.175483 0.000000 -0.000001 -0.000000 -22.330385 -5.506043 10.068299 20.170332 -7.123811 0.308076 16.901277 -0.352025 13.407258 -0.946082 0.058552 -1.867918 0.000001 -0.000001 -0.000002 
11.926461 80.348862 18.678476 -17.539197 27.129419 8.366235 18.016077 -8.164131 1.273199 3.661509 -3.693599 -0.155326 3.638281 -3.599839 0.611859 13.748019 0.309480 -2.958055 -14.438190 -17.232356 -0.429016 0.000000 -0.000000 -0.000000 1.718571 -15.903467 -6.345913 6.925201 27.157643 -45.067787 -0.000010 -38.380537 -0.000012 3.030954 -14.360736 0.408930 -0.320713 -2.872890 -4.335464 0.179291 1.439696 -14.196752 0.173051 1.414811 -13.946277 -0.000000 -0.000000 0.000000 -3.450719 3.929804 5.839990 7.897332 24.330191 -8.175597 -8.640398 0.779125 10.241222 -0.000000 0.000000 0.000004 0.810085 1.608418 -4.212890 -10.198907 -18.143445 54.904496 0.000007 28.761903 -0.000009 14.517999 8.299412 1.437157 -8.339156 -19.330284 -19.277990 7.549772 -15.761126 0.230349 -3.742008 -11.995539 -17.703010 -0.000000 -0.000001 0.000000 -0.836211 1.835124 11.065768 0.365397 -1.809984 22.825051 0.354122 -1.782994 22.465604 -0.000002 -0.000000 -0.000001 -2.889005 16.893138 -0.608506 63.056484 10.791582 -7.683448 -16.658171 11.944316 -2.585930 -30.031867 0.034883 -0.161697 -0.000000 0.000001 0.000000 -21.517102 -7.071555 13.360587 24.627617 -9.587790 0.695290 12.749170 -2.630092 -5.363002 -7.835855 0.000004 0.000003 -0.000000 0.000001 0.000001 
12.469015 77.468689 19.707695 -19.286532 27.692848 9.533637 18.906042 -8.062805 1.587665 3.604054 -3.607224 0.033077 3.583754 -3.518810 0.757448 13.395159 -0.222835 -3.223304 -15.284404 -19.248498 -1.575363 -0.000000 0.000000 -0.000000 1.627177 -14.179141 -6.755692 1.512526 27.639219 -39.127862 0.000005 -33.906767 0.000004 6.394962 -16.841718 -1.006185 -0.168811 -2.651660 -2.861799 0.128248 1.220374 -11.998073 0.125473 1.207230 -11.866956 -0.000000 0.000001 -0.000003 3.542118 13.397120 6.591031 9.689216 28.351067 -9.249487 -7.747715 2.925646 10.394099 -0.000000 0.000001 0.000002 0.699885 0.867482 -5.730604 -11.159764 -22.079821 50.916560 0.000007 27.956599 -0.000031 13.882498 8.531940 0.297148 -8.369867 -19.256096 -19.071201 7.540790 -16.047997 -0.006696 -3.602990 -12.190025 -17.538660 -0.000000 -0.000000 -0.000000 -0.071366 -0.002624 2.913897 0.189797 -1.317322 16.396694 0.186583 -1.306334 16.256170 -0.000000 -0.000001 0.000001 0.377853 18.968979 -1.365090 68.358698 10.573581 -8.574577 -25.690676 18.351784 -2.228183 -24.834249 0.334820 -3.217672 -0.000000 -0.000000 0.000000 -21.560894 -8.034606 15.020044 30.144207 -11.436238 1.118178 7.631469 -2.492947 -16.467403 -8.760600 -0.000016 0.000002 0.000000 -0.000000 -0.000000 
12.728074 75.019440 20.420853 -20.899913 29.065399 10.615355 19.632016 -8.291145 1.716288 3.644804 -3.716828 0.089947 3.625218 -3.636187 0.763772 13.071525 -0.553596 -2.724668 -16.405486 -20.587285 -2.452274 -0.000000 -0.000000 0.000000 1.614322 -13.409722 -6.071217 -2.348248 28.096767 -35.472038 -0.000003 -32.258294 0.000004 14.497889 -18.769964 0.078632 -0.219472 -2.101360 -3.745772 0.120259 1.182155 -11.616877 0.119189 1.176931 -11.564775 -0.000000 -0.000002 0.000004 7.165555 18.178419 6.748125 11.430236 31.830468 -10.311825 -7.027914 4.563241 10.531430 -0.000001 -0.000001 -0.000001 0.712632 1.549424 -8.117303 -11.964985 -26.125909 49.593846 -0.000000 25.284081 0.000004 19.408157 10.442324 -1.181783 -8.285956 -19.292197 -18.898850 8.006686 -17.234874 -0.265185 -3.558652 -12.160464 -17.356668 0.000000 -0.000000 0.000000 -0.016315 -0.667328 2.231522 0.153973 -1.188865 14.758685 0.152754 -1.184203 14.699622 -0.000002 -0.000000 0.000001 1.477847 20.495192 -1.239308 73.302683 10.995076 -7.587320 -31.261701 17.901390 -2.425834 -23.012451 0.241099 -4.050081 -0.000000 0.000000 0.000000 -22.429578 -9.513052 15.303309 36.202841 -11.688409 2.030942 1.381981 -5.221756 -20.578557 -3.405994 0.000008 -0.000004 -0.000000 -0.000001 0.000000 
12.048219 74.293953 20.251421 -21.312075 30.722860 10.694172 20.657743 -7.724577 1.700520 3.903000 -3.414887 0.264236 3.888153 -3.337506 0.889384 12.401727 -0.895967 -2.138633 -16.678922 -22.698891 -2.748338 0.000000 -0.000000 -0.000000 1.616193 -15.510921 -6.267893 -5.618357 27.250891 -32.434147 -0.000004 -31.890679 -0.000005 15.195569 -19.367684 -1.251235 -0.220433 -1.840465 -3.938580 0.115545 1.158981 -11.386078 0.115192 1.157230 -11.368579 -0.000001 0.000001 -0.000000 7.318602 18.474588 7.100224 11.016562 31.110794 -10.111662 -6.915540 4.573288 10.716821 -0.000001 0.000002 -0.000002 0.846334 2.649271 -9.028527 -10.757110 -29.019630 51.654354 0.000000 23.880829 0.000003 28.789087 10.815204 -2.460561 -7.974536 -19.517930 -18.382501 8.498804 -18.452494 -0.517191 -3.427465 -12.332060 -17.197563 -0.000001 -0.000000 -0.000000 0.043087 -2.227356 -0.243776 0.107855 -0.997509 12.341391 0.107701 -0.996805 12.332553 -0.000003 -0.000001 -0.000000 -1.519376 20.106661 2.316626 76.817369 9.978992 -5.594938 -29.824219 11.593391 -5.327687 -27.596630 0.220161 -1.390358 -0.000000 0.000001 -0.000000 -23.930273 -9.245668 16.306563 37.320212 -11.705665 1.612208 1.019302 -8.702321 -20.288283 -3.396202 -0.000010 0.000003 0.000000 -0.000002 -0.000000 
10.568809 75.150536 18.983730 -20.392510 31.261359 11.182624 21.614605 -7.132492 0.250506 4.370595 -2.924853 -0.436975 4.361238 -2.850158 0.133032 11.833217 -1.137958 -1.338557 -15.770888 -24.961570 -0.755824 -0.000000 -0.000000 0.000000 1.535341 -17.693397 -7.052635 -8.085468 25.252123 -30.336961 -0.000001 -33.230926 -0.000006 11.000709 -19.529961 -3.339328 -0.155840 -1.707270 -3.205596 0.097782 1.067025 -10.471821 0.097460 1.065299 -10.454680 -0.000002 -0.000001 -0.000001 6.182041 16.737373 6.487545 10.099218 29.268597 -9.542882 -7.759036 1.948249 10.998248 -0.000001 -0.000001 0.000001 1.242900 5.342649 -8.417073 -10.618504 -28.661349 56.732350 -0.000003 19.776792 0.000010 31.851836 12.900035 -3.380056 -7.782001 -19.322655 -17.820402 8.784807 -19.266910 -0.754673 -3.027881 -13.131791 -17.118194 0.000001 0.000000 -0.000000 0.010908 -3.055378 -2.451415 0.073180 -0.823205 10.159010 0.073081 -0.822672 10.152589 0.000002 0.000001 0.000001 -4.646639 17.969845 2.157044 75.404196 9.851889 -3.896598 -27.036126 1.140503 -2.457935 -28.062192 -0.058031 0.283160 -0.000000 0.000001 0.000000 -24.152848 -10.087595 14.307240 33.399031 -11.620303 2.554581 4.728507 -6.738849 -20.561610 -5.165791 -0.000006 0.000000 -0.000000 0.000000 0.000000 
8.509486 76.848663 16.996876 -18.099153 31.146257 11.256579 22.105234 -6.506662 -2.050391 4.555728 -2.309284 -1.510964 4.557560 -2.216399 -0.995532 11.392101 -1.234288 -0.838309 -12.484316 -27.186680 3.331442 -0.000001 -0.000000 0.000001 1.294497 -20.701622 -8.808641 -8.535224 23.098023 -29.052452 -0.000002 -36.436542 -0.000014 8.212076 -18.535805 -5.424884 -0.259473 -1.061663 -5.233841 0.087997 1.012693 -9.932831 0.087505 1.009865 -9.904945 -0.000002 0.000000 -0.000002 5.886658 16.203867 5.990146 10.732847 30.385046 -9.732946 -7.996550 0.951323 11.214423 -0.000001 -0.000002 0.000003 1.599301 8.010146 -7.589630 -12.251340 -25.575169 64.022423 0.000004 14.458093 -0.000022 30.741797 16.515087 -5.179607 -7.767454 -18.639262 -17.802328 8.569438 -19.138463 -0.969147 -2.834371 -13.451813 -16.971014 -0.000002 0.000000 0.000000 0.004538 -3.362417 -2.179073 0.061273 -0.753778 9.294508 0.061200 -0.753330 9.288525 -0.000000 -0.000000 0.000002 -5.658898 15.126103 -1.831336 68.197520 1.939685 -2.109296 -25.858779 -4.467879 6.503455 -20.976722 -0.131268 1.109563 -0.000000 -0.000000 0.000000 -25.770145 -8.236693 13.267586 27.170148 -11.386683 0.759002 11.372188 -5.367437 -15.386804 -7.952003 0.000001 0.000002 0.000000 -0.000001 0.000000 
